<svg width="151" height="150" viewBox="0 0 151 150" fill="none" xmlns="http://www.w3.org/2000/svg">
<rect x="0.333008" width="150" height="150" rx="24" fill="white" fill-opacity="0.1"/>
<g clip-path="url(#clip0_723_2186)">
<path d="M96.9163 44.166H53.7497C45.2397 44.166 38.333 51.0727 38.333 59.5827V90.416C38.333 98.926 45.2397 105.833 53.7497 105.833H96.9163C105.426 105.833 112.333 98.926 112.333 90.416V59.5827C112.333 51.0727 105.426 44.166 96.9163 44.166ZM53.7497 50.3327H96.9163C102.004 50.3327 106.166 54.4952 106.166 59.5827H44.4997C44.4997 54.4952 48.6622 50.3327 53.7497 50.3327ZM96.9163 99.666H53.7497C48.6622 99.666 44.4997 95.5035 44.4997 90.416V65.7493H106.166V90.416C106.166 95.5035 102.004 99.666 96.9163 99.666ZM69.1663 74.9994C69.1663 76.6952 67.7788 78.0827 66.083 78.0827H62.9997V90.416C62.9997 92.1119 61.6122 93.4994 59.9163 93.4994C58.2205 93.4994 56.833 92.1119 56.833 90.416V78.0827H53.7497C52.0538 78.0827 50.6663 76.6952 50.6663 74.9994C50.6663 73.3035 52.0538 71.916 53.7497 71.916H66.083C67.7788 71.916 69.1663 73.3035 69.1663 74.9994ZM99.9997 74.9994C99.9997 76.6952 98.6122 78.0827 96.9163 78.0827H78.4163C76.7205 78.0827 75.333 76.6952 75.333 74.9994C75.333 73.3035 76.7205 71.916 78.4163 71.916H96.9163C98.6122 71.916 99.9997 73.3035 99.9997 74.9994ZM99.9997 87.3327C99.9997 89.0285 98.6122 90.416 96.9163 90.416H78.4163C76.7205 90.416 75.333 89.0285 75.333 87.3327C75.333 85.6369 76.7205 84.2494 78.4163 84.2494H96.9163C98.6122 84.2494 99.9997 85.6369 99.9997 87.3327Z" fill="white"/>
</g>
<defs>
<clipPath id="clip0_723_2186">
<rect width="74" height="74" fill="white" transform="translate(38.333 38)"/>
</clipPath>
</defs>
</svg>
