<svg width="151" height="150" viewBox="0 0 151 150" fill="none" xmlns="http://www.w3.org/2000/svg">
<rect x="0.666504" width="150" height="150" rx="24" fill="white" fill-opacity="0.1"/>
<g clip-path="url(#clip0_723_2194)">
<path d="M93.6917 81.8358L80.1466 76.0021C77.2575 74.7595 73.9429 74.7595 71.0569 76.0082L57.5982 81.8358C55.3689 82.8008 53.9845 84.9098 53.9814 87.3364C53.9783 89.763 55.3597 91.8751 57.5828 92.8463L63.3332 95.3562V103.348C63.3332 106.351 65.0907 109.102 67.8163 110.357C70.1874 111.448 72.8268 112 75.6665 112C78.5063 112 81.1456 111.445 83.5228 110.357C86.2423 109.102 87.9998 106.348 87.9998 103.348V95.3315L91.0832 93.9933V102.753C91.0832 104.458 92.4614 105.836 94.1665 105.836C95.8716 105.836 97.2498 104.458 97.2498 102.753C97.2498 102.753 97.2498 87.4998 97.2498 87.3364C97.2498 84.9407 95.8901 82.7793 93.6917 81.8388V81.8358ZM73.5082 81.6693C74.8402 81.0896 76.3757 81.0896 77.7077 81.6631L91.1202 87.1422C91.1202 87.1853 91.0986 87.2192 91.0955 87.2624L77.7293 93.0683C76.3849 93.6511 74.8433 93.6511 73.4989 93.0622L60.0463 87.4967L73.5051 81.6693H73.5082ZM81.8332 103.345C81.8332 103.959 81.4909 104.501 80.9421 104.754C77.8279 106.182 73.502 106.182 70.394 104.754C69.8421 104.501 69.4998 103.959 69.4998 103.345V98.0448L71.0353 98.7139C72.4938 99.3491 74.057 99.6667 75.6233 99.6667C77.1804 99.6667 78.7375 99.3522 80.1898 98.7201L81.8332 98.0047V103.345ZM60.2498 51.875C60.2498 54.428 58.1778 56.5 55.6248 56.5C53.0718 56.5 50.9998 54.428 50.9998 51.875C50.9998 49.322 53.0718 47.25 55.6248 47.25C58.1778 47.25 60.2498 49.322 60.2498 51.875ZM72.5832 51.875C72.5832 54.428 70.5112 56.5 67.9582 56.5C65.4052 56.5 63.3332 54.428 63.3332 51.875C63.3332 49.322 65.4052 47.25 67.9582 47.25C70.5112 47.25 72.5832 49.322 72.5832 51.875ZM97.2498 38H54.0832C45.5824 38 38.6665 44.9159 38.6665 53.4167V90.4167C38.6665 98.9174 45.5824 105.833 54.0832 105.833C55.7852 105.833 57.1665 104.455 57.1665 102.75C57.1665 101.045 55.7852 99.6667 54.0832 99.6667C48.9833 99.6667 44.8332 95.5165 44.8332 90.4167V65.75H106.5V90.4167C106.5 92.6706 105.68 94.8443 104.19 96.5309C103.065 97.8074 103.185 99.7561 104.465 100.881C105.735 102.007 107.687 101.89 108.815 100.607C111.301 97.7951 112.667 94.1722 112.667 90.4136V53.4167C112.667 44.9159 105.751 38 97.2498 38ZM44.8332 59.5833V53.4167C44.8332 48.3168 48.9833 44.1667 54.0832 44.1667H97.2498C102.35 44.1667 106.5 48.3168 106.5 53.4167V59.5833H44.8332Z" fill="white"/>
</g>
<defs>
<clipPath id="clip0_723_2194">
<rect width="74" height="74" fill="white" transform="translate(38.6665 38)"/>
</clipPath>
</defs>
</svg>
