<svg width="151" height="150" viewBox="0 0 151 150" fill="none" xmlns="http://www.w3.org/2000/svg">
<rect x="0.666504" width="150" height="150" rx="24" fill="white" fill-opacity="0.1"/>
<g clip-path="url(#clip0_723_2172)">
<path d="M60.4287 53.2995C63.0156 53.2995 65.3466 54.3663 67.0239 56.0776C62.9385 58.8526 60.2468 63.5362 60.2468 68.8364C60.2468 69.8477 60.3578 70.8313 60.5458 71.7902C60.5058 71.7902 60.4688 71.8026 60.4287 71.8026C55.3196 71.8026 51.1787 67.6617 51.1787 62.5526C51.1787 57.4435 55.3196 53.2995 60.4287 53.2995ZM91.0832 53.4167C88.4901 53.4167 86.1529 54.4928 84.4725 56.2102C88.4593 59.0006 91.0832 63.6071 91.0832 68.8333C91.0832 69.8786 90.9753 70.8992 90.7748 71.8858C90.8797 71.8889 90.9783 71.9167 91.0832 71.9167C96.1923 71.9167 100.333 67.7757 100.333 62.6667C100.333 57.5576 96.1923 53.4167 91.0832 53.4167ZM75.6665 78.0833C80.7756 78.0833 84.9165 73.9424 84.9165 68.8333C84.9165 63.7242 80.7756 59.5833 75.6665 59.5833C70.5574 59.5833 66.4165 63.7242 66.4165 68.8333C66.4165 73.9424 70.5574 78.0833 75.6665 78.0833ZM75.6665 84.25C70.2583 84.25 65.3836 87.5276 63.5336 92.4085C62.9293 94.0026 63.7309 95.7817 65.325 96.386C66.9129 96.9873 68.6982 96.1887 69.3025 94.5946C70.2491 92.094 72.8083 90.4197 75.6696 90.4197C78.5309 90.4197 81.0901 92.0971 82.0367 94.5946C82.5023 95.8248 83.677 96.5864 84.9196 96.5864C85.2834 96.5864 85.6534 96.5217 86.0111 96.3891C87.6021 95.7847 88.4038 94.0057 87.8025 92.4116C85.9525 87.5337 81.0778 84.2531 75.6696 84.2531L75.6665 84.25ZM87.0748 78.6907C85.4499 79.2026 84.5465 80.9323 85.0583 82.5573C85.5702 84.1791 87.3061 85.0794 88.9248 84.5737C89.6124 84.3579 90.337 84.25 91.0832 84.25C93.9445 84.25 96.5037 85.9273 97.4503 88.4248C97.9158 89.6551 99.0906 90.4167 100.333 90.4167C100.697 90.4167 101.067 90.3519 101.425 90.2193C103.016 89.615 103.817 87.8359 103.216 86.2418C101.366 81.364 96.4913 78.0833 91.0832 78.0833C89.708 78.0833 88.3606 78.2868 87.0748 78.6907ZM60.2498 78.0833C54.8417 78.0833 49.9669 81.3609 48.1169 86.2418C47.5126 87.8359 48.3143 89.615 49.9083 90.2193C50.2691 90.355 50.636 90.4167 50.9998 90.4167C52.2424 90.4167 53.4172 89.6582 53.8828 88.4248C54.8293 85.9242 57.3885 84.25 60.2498 84.25C60.996 84.25 61.7237 84.3579 62.4082 84.5737C64.0269 85.0794 65.7628 84.1791 66.2747 82.5573C66.7865 80.9323 65.8831 79.2026 64.2582 78.6907C62.9724 78.2868 61.625 78.0833 60.2498 78.0833ZM60.2498 105.833H54.0832C48.9833 105.833 44.8332 101.683 44.8332 96.5833V90.4167C44.8332 88.7116 43.4518 87.3333 41.7498 87.3333C40.0478 87.3333 38.6665 88.7116 38.6665 90.4167V96.5833C38.6665 105.084 45.5824 112 54.0832 112H60.2498C61.9518 112 63.3332 110.622 63.3332 108.917C63.3332 107.212 61.9518 105.833 60.2498 105.833ZM109.583 87.3333C107.881 87.3333 106.5 88.7116 106.5 90.4167V96.5833C106.5 101.683 102.35 105.833 97.2498 105.833H91.0832C89.3812 105.833 87.9998 107.212 87.9998 108.917C87.9998 110.622 89.3812 112 91.0832 112H97.2498C105.751 112 112.667 105.084 112.667 96.5833V90.4167C112.667 88.7116 111.285 87.3333 109.583 87.3333ZM97.2498 38H91.0832C89.3812 38 87.9998 39.3783 87.9998 41.0833C87.9998 42.7884 89.3812 44.1667 91.0832 44.1667H97.2498C102.35 44.1667 106.5 48.3168 106.5 53.4167V59.5833C106.5 61.2884 107.881 62.6667 109.583 62.6667C111.285 62.6667 112.667 61.2884 112.667 59.5833V53.4167C112.667 44.9159 105.751 38 97.2498 38ZM41.7498 62.6667C43.4518 62.6667 44.8332 61.2884 44.8332 59.5833V53.4167C44.8332 48.3168 48.9833 44.1667 54.0832 44.1667H60.2498C61.9518 44.1667 63.3332 42.7884 63.3332 41.0833C63.3332 39.3783 61.9518 38 60.2498 38H54.0832C45.5824 38 38.6665 44.9159 38.6665 53.4167V59.5833C38.6665 61.2884 40.0478 62.6667 41.7498 62.6667Z" fill="white"/>
</g>
<defs>
<clipPath id="clip0_723_2172">
<rect width="74" height="74" fill="white" transform="translate(38.6665 38)"/>
</clipPath>
</defs>
</svg>
