<svg width="151" height="150" viewBox="0 0 151 150" fill="none" xmlns="http://www.w3.org/2000/svg">
<rect x="0.166504" width="150" height="150" rx="24" fill="white" fill-opacity="0.1"/>
<g clip-path="url(#clip0_723_2161)">
<path d="M59.7497 111.999C63.1554 111.999 65.9163 109.238 65.9163 105.833C65.9163 102.427 63.1554 99.666 59.7497 99.666C56.3439 99.666 53.583 102.427 53.583 105.833C53.583 109.238 56.3439 111.999 59.7497 111.999Z" fill="white"/>
<path d="M90.5832 111.999C93.9889 111.999 96.7498 109.238 96.7498 105.833C96.7498 102.427 93.9889 99.666 90.5832 99.666C87.1774 99.666 84.4165 102.427 84.4165 105.833C84.4165 109.238 87.1774 111.999 90.5832 111.999Z" fill="white"/>
<path d="M109.083 47.25H102.917V41.0833C102.917 40.2656 102.592 39.4813 102.014 38.9031C101.435 38.3249 100.651 38 99.8333 38C99.0156 38 98.2313 38.3249 97.6531 38.9031C97.0748 39.4813 96.75 40.2656 96.75 41.0833V47.25H90.5833C89.7656 47.25 88.9813 47.5749 88.4031 48.1531C87.8248 48.7313 87.5 49.5156 87.5 50.3333C87.5 51.1511 87.8248 51.9353 88.4031 52.5136C88.9813 53.0918 89.7656 53.4167 90.5833 53.4167H96.75V59.5833C96.75 60.4011 97.0748 61.1853 97.6531 61.7636C98.2313 62.3418 99.0156 62.6667 99.8333 62.6667C100.651 62.6667 101.435 62.3418 102.014 61.7636C102.592 61.1853 102.917 60.4011 102.917 59.5833V53.4167H109.083C109.901 53.4167 110.685 53.0918 111.264 52.5136C111.842 51.9353 112.167 51.1511 112.167 50.3333C112.167 49.5156 111.842 48.7313 111.264 48.1531C110.685 47.5749 109.901 47.25 109.083 47.25Z" fill="white"/>
<path d="M105.294 67.9885C104.895 67.9139 104.486 67.9192 104.089 68.004C103.692 68.0889 103.317 68.2516 102.983 68.4827C102.65 68.7139 102.366 69.0089 102.148 69.3507C101.929 69.6924 101.781 70.0741 101.711 70.4737C101.326 72.6078 100.204 74.539 98.5406 75.9299C96.8769 77.3208 94.7774 78.083 92.6089 78.0833H54.872L51.9737 53.4167H78.2498C79.0676 53.4167 79.8518 53.0918 80.4301 52.5136C81.0083 51.9353 81.3332 51.1511 81.3332 50.3333C81.3332 49.5156 81.0083 48.7313 80.4301 48.1531C79.8518 47.5749 79.0676 47.25 78.2498 47.25H51.246L51.1165 46.1647C50.8508 43.9157 49.7693 41.8423 48.0769 40.3375C46.3846 38.8327 44.199 38.001 41.9343 38H41.2498C40.4321 38 39.6478 38.3249 39.0696 38.9031C38.4914 39.4813 38.1665 40.2656 38.1665 41.0833C38.1665 41.9011 38.4914 42.6853 39.0696 43.2636C39.6478 43.8418 40.4321 44.1667 41.2498 44.1667H41.9343C42.6895 44.1668 43.4185 44.444 43.9828 44.9459C44.5472 45.4477 44.9077 46.1392 44.9961 46.8892L49.2388 82.9643C49.6792 86.716 51.4818 90.1755 54.3044 92.686C57.127 95.1966 60.7731 96.5834 64.5506 96.5833H96.7498C97.5676 96.5833 98.3518 96.2585 98.9301 95.6803C99.5083 95.102 99.8332 94.3178 99.8332 93.5C99.8332 92.6823 99.5083 91.898 98.9301 91.3198C98.3518 90.7415 97.5676 90.4167 96.7498 90.4167H64.5506C62.6374 90.417 60.7712 89.8242 59.2091 88.7198C57.6469 87.6154 56.4656 86.0537 55.8278 84.25H92.6089C96.223 84.2504 99.7224 82.981 102.496 80.6635C105.269 78.3461 107.14 75.128 107.782 71.5713C107.854 71.1727 107.847 70.7638 107.761 70.3679C107.675 69.9721 107.511 69.597 107.28 69.2643C107.049 68.9316 106.755 68.6476 106.414 68.4287C106.073 68.2098 105.692 68.0602 105.294 67.9885Z" fill="white"/>
</g>
<defs>
<clipPath id="clip0_723_2161">
<rect width="74" height="74" fill="white" transform="translate(38.1665 38)"/>
</clipPath>
</defs>
</svg>
